<svg width="43" height="42" viewBox="0 0 43 42" fill="none" xmlns="http://www.w3.org/2000/svg">
<circle cx="21.5" cy="21" r="21" fill="#FF3115"/>
<path d="M22.1861 20.3125C22.1861 20.1302 22.1137 19.9553 21.9848 19.8264C21.8558 19.6974 21.681 19.625 21.4986 19.625C21.3163 19.625 21.1414 19.6974 21.0125 19.8264C20.8836 19.9553 20.8111 20.1302 20.8111 20.3125V24.4375C20.8111 24.6198 20.8836 24.7947 21.0125 24.9236C21.1414 25.0526 21.3163 25.125 21.4986 25.125C21.681 25.125 21.8558 25.0526 21.9848 24.9236C22.1137 24.7947 22.1861 24.6198 22.1861 24.4375V20.3125ZM22.5299 17.5625C22.5299 17.8358 22.4213 18.0979 22.228 18.2912C22.0348 18.4845 21.7726 18.5931 21.4993 18.5931C21.226 18.5931 20.9639 18.4845 20.7706 18.2912C20.5773 18.0979 20.4688 17.8358 20.4688 17.5625C20.4688 17.2894 20.5773 17.0274 20.7704 16.8343C20.9635 16.6411 21.2255 16.5326 21.4986 16.5326C21.7718 16.5326 22.0337 16.6411 22.2269 16.8343C22.42 17.0274 22.5299 17.2894 22.5299 17.5625ZM21.5 11.375C18.9473 11.375 16.4991 12.3891 14.6941 14.1941C12.8891 15.9991 11.875 18.4473 11.875 21C11.875 23.5527 12.8891 26.0009 14.6941 27.8059C16.4991 29.6109 18.9473 30.625 21.5 30.625C24.0527 30.625 26.5009 29.6109 28.3059 27.8059C30.1109 26.0009 31.125 23.5527 31.125 21C31.125 18.4473 30.1109 15.9991 28.3059 14.1941C26.5009 12.3891 24.0527 11.375 21.5 11.375ZM13.25 21C13.25 19.9166 13.4634 18.8438 13.878 17.8429C14.2926 16.8419 14.9003 15.9325 15.6664 15.1664C16.4325 14.4003 17.3419 13.7926 18.3429 13.378C19.3438 12.9634 20.4166 12.75 21.5 12.75C22.5834 12.75 23.6562 12.9634 24.6571 13.378C25.6581 13.7926 26.5675 14.4003 27.3336 15.1664C28.0997 15.9325 28.7074 16.8419 29.122 17.8429C29.5366 18.8438 29.75 19.9166 29.75 21C29.75 23.188 28.8808 25.2865 27.3336 26.8336C25.7865 28.3808 23.688 29.25 21.5 29.25C19.312 29.25 17.2135 28.3808 15.6664 26.8336C14.1192 25.2865 13.25 23.188 13.25 21Z" fill="white"/>
</svg>
